<svg width="1073" height="43" viewBox="0 0 1073 43" fill="none" xmlns="http://www.w3.org/2000/svg">
<path d="M230.468 36.017H224.949V21.2474H221.189V16.4387H224.949V13.017C224.949 8.96224 226.612 6.0542 232.116 6.0542C233.28 6.0542 235.108 6.30609 235.108 6.30609V10.7712H233.188C231.232 10.7712 230.469 11.4099 230.469 13.1756V16.4387H235.035L234.628 21.2474H230.468L230.468 36.017ZM243.132 16.0544C243.052 16.0544 242.969 16.0576 242.887 16.0598C237.769 16.0598 235.428 20.1922 235.428 26.0583C235.428 33.448 238.465 36.4055 242.927 36.4055C245.48 36.4055 247.157 35.2521 248.177 33.0995V36.0191H253.426V16.4408H248.177V19.4516C247.344 17.5145 245.62 16.0774 243.132 16.0544ZM244.467 20.6807C246.617 20.6807 247.907 22.2902 247.907 25.0278L247.912 27.8239C247.912 29.669 246.846 31.8277 244.467 31.8277C240.81 31.8277 240.907 27.5883 240.907 26.1764C240.907 21.4268 242.856 20.6807 244.467 20.6807ZM255.546 26.2309C255.546 23.8518 255.44 16.0672 264.888 16.0672C268.681 16.0672 270.265 17.3617 270.265 17.3617L268.992 21.5996C268.992 21.5996 267.41 20.6647 265.349 20.6647C262.71 20.6647 261.025 22.3073 261.025 25.1974L261.028 27.2698C261.028 30.0468 262.654 31.9006 265.355 31.9006C267.232 31.9006 268.963 30.9569 268.963 30.9569L270.232 35.1063C270.232 35.1063 268.784 36.409 264.915 36.409C255.919 36.409 255.547 29.4247 255.547 26.2309H255.546ZM301.045 16.0598C306.163 16.0598 308.541 20.1922 308.541 26.0583C308.541 33.448 305.504 36.4055 301.042 36.4055C298.489 36.4055 296.602 35.2522 295.582 33.0995V36.0191L290.399 36.0169V6.64949L295.902 6.13423V19.1864C296.697 16.9029 299.307 16.0598 301.045 16.0598H301.045ZM299.502 20.6807C297.352 20.6807 295.902 22.2902 295.902 25.0278L295.897 27.8239C295.894 29.669 296.901 31.8277 299.502 31.8277C303.159 31.8277 303.062 27.5883 303.062 26.1764C303.062 21.4268 301.113 20.6807 299.502 20.6807ZM279.814 16.076C274.009 16.076 270.945 19.4733 270.945 25.5108V26.6325C270.945 34.4686 275.248 36.486 280.379 36.486C285.366 36.486 287.623 34.9887 287.623 34.9887L286.593 31.0012C286.593 31.0012 283.938 32.214 281.039 32.214C278.033 32.214 276.74 31.3917 276.409 28.291H288.063V25.0921C288.063 18.543 284.624 16.0758 279.814 16.0758L279.814 16.076ZM279.954 20.0688C281.963 20.0688 283.265 21.3914 283.193 24.4589H276.419C276.537 21.2304 277.941 20.0689 279.954 20.0689V20.0688ZM319.515 16.0491C313.554 16.0491 310.416 19.6551 310.416 26.1172C310.416 34.9837 315.825 36.4109 319.525 36.4109C324.941 36.4109 328.544 33.2808 328.544 26.1978C328.544 18.8255 324.493 16.0491 319.515 16.0491ZM319.44 20.6968C322.061 20.6968 323.1 22.8026 323.1 25.1996V27.2605C323.1 30.1643 321.646 31.8439 319.43 31.8439C317.357 31.8439 315.9 30.2728 315.9 27.2605V25.1996C315.9 21.987 317.634 20.6968 319.44 20.6968ZM339.508 16.0491C333.547 16.0491 330.409 19.6551 330.409 26.1172C330.409 34.9837 335.819 36.4109 339.518 36.4109C344.934 36.4109 348.537 33.2808 348.537 26.1978C348.537 18.8255 344.486 16.0491 339.508 16.0491ZM339.433 20.6968C342.054 20.6968 343.093 22.8026 343.093 25.1996V27.2605C343.093 30.1643 341.64 31.8439 339.423 31.8439C337.35 31.8439 335.894 30.2728 335.894 27.2605V25.1996C335.894 21.987 337.627 20.6968 339.433 20.6968ZM350.617 36.017V6.64949L356.137 6.13423V25.8182L361.613 16.4387H367.442L361.729 26.1531L367.662 36.017H361.816L356.137 26.4393V36.017H350.617Z" fill="#170F49" fill-opacity="0.6"/>
<path d="M15.386 0.305176H16.4501C20.1445 0.391388 23.7786 1.98632 26.3887 4.80977C25.425 5.86588 24.4412 6.87887 23.4975 7.93498C22.0318 6.51247 20.2649 5.41326 18.3375 5.02531C15.4864 4.37871 12.4145 4.96065 10.0252 6.70645C7.41505 8.53846 5.64819 11.6421 5.26671 14.9613C4.84507 18.2374 5.70842 21.6859 7.69614 24.2291C9.60355 26.7077 12.5149 28.2596 15.5265 28.3673C18.3375 28.5397 21.2688 27.613 23.3168 25.5008C24.923 24.0136 25.6659 21.7505 25.9069 19.5521C22.5739 19.5521 19.241 19.5737 15.908 19.5521V15.1122H29.9425C30.6653 19.8754 29.6213 25.2421 26.2482 28.6475C23.9995 31.0615 20.8874 32.484 17.715 32.7642C14.6431 33.0875 11.4708 32.4624 8.7402 30.8675C5.46749 28.9924 2.85735 25.8241 1.57236 22.0954C0.367686 18.6684 0.347608 14.7889 1.47197 11.3404C2.49595 8.19361 4.46359 5.41326 6.99341 3.47348C9.42285 1.55526 12.3743 0.499154 15.386 0.305176Z" fill="#170F49" fill-opacity="0.6"/>
<path d="M95.8992 1.42603H100.196V32.2038C98.7703 32.2038 97.3247 32.2254 95.8992 32.1823C95.9192 21.9445 95.8992 11.6853 95.8992 1.42603Z" fill="#170F49" fill-opacity="0.6"/>
<path d="M39.4994 12.0949C42.1497 11.5561 45.0208 12.1595 47.2093 13.8622C49.1971 15.3709 50.5824 17.7417 51.0041 20.3281C51.5462 23.324 50.8635 26.6 49.0565 28.9708C47.109 31.6218 43.9166 33.0443 40.8045 32.8288C37.9534 32.6564 35.1826 31.1261 33.4961 28.626C31.5887 25.8672 31.1269 22.0739 32.1709 18.8409C33.215 15.3709 36.1665 12.7199 39.4994 12.0949ZM40.1017 16.1899C39.0175 16.4917 38.0136 17.1598 37.2908 18.1081C35.3433 20.6083 35.4637 24.6818 37.6121 27.0095C38.8368 28.3458 40.684 28.9708 42.3906 28.6044C43.9768 28.3027 45.3622 27.1604 46.1251 25.6517C47.4503 23.0869 47.0688 19.5522 45.0409 17.5478C43.7359 16.2546 41.8284 15.7158 40.1017 16.1899Z" fill="#170F49" fill-opacity="0.6"/>
<path d="M60.7804 12.0946C63.8122 11.4696 67.1251 12.3748 69.3939 14.6595C73.0882 18.2157 73.4898 24.8756 70.3376 28.9707C68.4302 31.5571 65.3381 32.9796 62.2863 32.8288C59.375 32.7425 56.5038 31.1907 54.7771 28.6259C52.8296 25.8024 52.4079 21.9229 53.5122 18.6252C54.6165 15.2629 57.5077 12.6981 60.7804 12.0946ZM61.3828 16.1897C60.2986 16.4915 59.2947 17.1596 58.5719 18.0864C56.6444 20.5435 56.7247 24.5524 58.7927 26.9016C60.0175 28.3026 61.9249 28.9923 63.6917 28.6043C65.2578 28.281 66.6633 27.1603 67.4263 25.6516C68.7313 23.0652 68.3498 19.5305 66.3019 17.526C64.9968 16.2328 63.0894 15.7156 61.3828 16.1897Z" fill="#170F49" fill-opacity="0.6"/>
<path d="M78.8325 13.3448C81.1415 11.793 84.2134 11.362 86.7031 12.6982C87.4861 13.0646 88.1286 13.6897 88.751 14.3147C88.7711 13.7328 88.751 13.1293 88.7711 12.5258C90.1163 12.5474 91.4616 12.5258 92.8269 12.5474V31.5572C92.8068 34.4237 92.1242 37.4627 90.1967 39.5534C88.0885 41.8595 84.8559 42.5708 81.9446 42.0966C78.8325 41.6009 76.122 39.1654 74.9173 36.0833C76.122 35.4583 77.3869 34.9626 78.6317 34.3806C79.3345 36.148 80.76 37.6567 82.5469 38.0015C84.3339 38.3464 86.4019 37.8722 87.5664 36.2773C88.8113 34.6393 88.8113 32.3977 88.751 30.3933C87.8275 31.3632 86.7633 32.2253 85.4783 32.5486C82.6875 33.3892 79.6155 32.3546 77.4672 30.3286C75.2988 28.3027 74.0138 25.1775 74.1343 22.0738C74.1945 18.5607 76.0417 15.1768 78.8325 13.3448ZM82.9887 16.1036C81.7639 16.3192 80.6194 17.052 79.8364 18.065C77.9491 20.4789 77.9491 24.3369 79.8565 26.7077C80.9407 28.1087 82.6875 28.8846 84.374 28.6906C85.9602 28.5182 87.4259 27.4405 88.2089 25.9534C89.5341 23.4317 89.3132 20.0047 87.5263 17.8063C86.422 16.4485 84.6551 15.7803 82.9887 16.1036Z" fill="#170F49" fill-opacity="0.6"/>
<path d="M105.353 14.444C107.762 12.0301 111.477 11.211 114.569 12.4827C117.5 13.6681 119.367 16.664 120.311 19.7461C115.954 21.6858 111.617 23.6041 107.26 25.5438C107.863 26.7724 108.786 27.8931 110.031 28.3457C111.778 29.0139 113.866 28.7768 115.332 27.5267C115.914 27.0526 116.376 26.4275 116.817 25.824C117.922 26.6215 119.026 27.3974 120.13 28.1949C118.564 30.7166 115.934 32.4839 113.103 32.7641C109.971 33.1736 106.638 31.8805 104.61 29.251C101.277 25.1128 101.598 18.1727 105.353 14.444ZM107.501 18.4313C106.819 19.4874 106.537 20.7806 106.558 22.0522C109.469 20.7591 112.38 19.4659 115.291 18.1511C114.81 16.9442 113.645 16.2114 112.46 16.0174C110.553 15.651 108.565 16.7502 107.501 18.4313Z" fill="#170F49" fill-opacity="0.6"/>
<path d="M720.53 1.87981C718.573 2.11523 715.638 3.09314 713.968 4.07106C709.48 6.66072 706.444 10.6991 704.925 16.0777C704.622 17.128 704.267 19.9893 704.284 21.3294C704.284 22.5065 704.622 25.3859 704.824 26.0741C704.925 26.4001 705.145 27.1788 705.33 27.7764C705.634 28.7905 707.102 31.9778 707.355 32.1951C707.405 32.2494 707.675 32.6116 707.928 33.0281C708.552 34.0242 710.189 35.7989 711.42 36.813C712.365 37.5917 715.031 39.2397 715.368 39.2578C715.452 39.2578 715.469 38.5697 715.419 37.6642C715.3 35.654 715.655 32.9195 716.414 30.1306C716.549 29.6598 716.65 29.0441 716.65 28.7724C716.65 28.5008 716.718 28.211 716.802 28.1205C716.886 28.0118 717.038 27.4866 717.122 26.9434C717.224 26.4001 717.392 25.567 717.51 25.0962C717.679 24.3899 717.662 24.1183 717.426 23.3577C717.089 22.1987 717.072 20.3153 717.409 19.4098C718.202 17.2548 719.079 16.4398 720.564 16.4398C722.352 16.4398 723.213 17.8886 722.875 20.3153C722.723 21.42 722.302 23.1585 722.032 23.7018C721.964 23.8647 721.846 24.3175 721.795 24.6978C721.728 25.0962 721.593 25.6576 721.509 25.9654C721.273 26.6717 721.728 28.048 722.335 28.5732C722.909 29.0622 724.107 29.207 725.203 28.9354C725.979 28.7543 726.3 28.537 727.11 27.704C728.071 26.6898 728.797 25.5127 728.797 24.9513C728.797 24.7883 728.881 24.571 728.982 24.4624C729.455 23.9553 729.708 20.0074 729.353 18.3413C728.965 16.5123 727.768 14.7194 726.215 13.6691C724.663 12.6006 721.458 12.2928 719.484 13.0171C718.101 13.5242 716.869 14.3754 716.077 15.3714C715.368 16.2587 714.626 17.7075 714.626 18.2146C714.626 18.3957 714.541 18.6311 714.44 18.7397C714.339 18.8484 714.221 19.5366 714.17 20.2791C714.086 21.3837 714.153 21.8908 714.457 22.9774C714.659 23.7199 715.031 24.5891 715.25 24.9151C715.705 25.567 715.705 25.8206 715.284 27.5591C715.166 28.0299 714.963 28.4646 714.845 28.5189C713.782 28.9535 711.623 26.219 710.897 23.5026C710.627 22.4703 710.611 18.7941 710.881 17.7075C710.999 17.2548 711.201 16.6391 711.336 16.3131C711.471 16.0052 711.589 15.6974 711.589 15.6249C711.589 15.5525 711.926 14.9368 712.348 14.2667C714.541 10.7172 718.101 8.83386 722.605 8.83386C723.634 8.83386 724.697 8.90629 724.984 8.99684C727.312 9.77555 727.936 10.0291 728.847 10.6086C730.619 11.7495 731.901 13.3069 733.183 15.9147C733.267 16.0777 733.385 16.5123 733.436 16.8745C733.503 17.2367 733.621 17.5807 733.706 17.6351C733.79 17.6894 733.858 18.8665 733.858 20.2609C733.858 22.7782 733.689 23.7923 732.98 25.8568C732.188 28.1205 730.146 30.6196 728.29 31.5975C727.228 32.1408 725.237 32.7384 724.444 32.7384C723.381 32.7384 721.289 31.7967 720.716 31.0361C720.446 30.692 720.193 30.8188 720.193 31.3077C720.193 31.4888 720.125 31.7967 720.024 31.9778C719.94 32.1408 719.788 32.6478 719.704 33.1006C719.214 35.491 718.523 37.4288 717.46 39.2397C717.139 39.8011 717.409 40.1271 718.286 40.2538C718.725 40.3263 719.316 40.453 719.585 40.5436C720.26 40.779 723.921 40.7428 725.153 40.5074C726.266 40.2901 728.071 39.7468 728.881 39.3846C733.976 37.139 737.839 32.5754 739.509 26.7623C740.403 23.6655 740.454 20.0617 739.644 16.4398C739.374 15.2627 739.29 14.9911 738.564 13.1801C737.518 10.5361 735.157 7.43942 732.761 5.53793C730.703 3.90807 728.679 2.96638 725.524 2.15145C724.647 1.93414 721.526 1.75304 720.53 1.87981ZM765.523 8.41734C764.865 8.52599 763.819 9.685 763.549 10.5905C763.262 11.5865 763.549 12.655 764.359 13.488C766.147 15.3533 769.251 13.5967 768.863 10.9164C768.627 9.21416 767.176 8.12759 765.523 8.41734ZM747.134 9.4858C746.983 9.66689 746.983 31.507 747.151 31.7605C747.236 31.9054 747.961 31.9597 749.378 31.9416L751.487 31.9235L751.571 28.2472C751.639 25.2592 751.706 24.5348 751.909 24.408C752.044 24.3175 753.191 24.2269 754.456 24.2269C757.223 24.2269 758.387 24.0096 759.652 23.2852C761.305 22.3254 762.267 20.9491 762.79 18.7579C763.11 17.3815 763.11 16.3855 762.773 14.973C762.469 13.7053 762.334 13.3974 761.609 12.3652C760.715 11.0794 759.804 10.3732 758.319 9.81177C757.493 9.52202 756.801 9.46769 752.33 9.41336C749.547 9.37714 747.202 9.41336 747.134 9.4858ZM756.396 13.9951C757.526 14.3754 758.083 14.9186 758.336 15.8966C758.657 17.1823 758.421 18.3776 757.712 19.1019C756.936 19.8806 756.244 20.0617 753.984 20.0617C752.499 20.0617 752.044 20.0074 751.841 19.772C751.622 19.5547 751.571 19.0295 751.571 16.965C751.571 13.7053 751.554 13.7234 753.899 13.7234C754.912 13.7234 755.89 13.8321 756.396 13.9951ZM785.986 12.9266C785.986 14.1762 785.902 15.3533 785.818 15.5525C785.7 15.7879 785.463 15.8966 785.059 15.8966C784.755 15.8966 784.468 15.969 784.434 16.0777C784.417 16.1682 784.417 16.802 784.468 17.4721C784.552 18.6673 784.569 18.6854 785.075 18.8122C785.362 18.8665 785.683 18.9752 785.784 19.0476C785.936 19.1382 785.986 20.5688 785.986 24.1907C785.986 29.0622 786.003 29.2433 786.374 29.9676C787.15 31.507 788.365 32.0502 790.828 31.9778L792.481 31.9235L792.532 30.1668L792.583 28.3921H792.161C791.52 28.3921 790.575 27.8488 790.474 27.4142C790.423 27.1969 790.373 25.2773 790.373 23.1223C790.373 20.1523 790.423 19.1563 790.592 19.0114C790.71 18.9027 791.182 18.7941 791.638 18.7579L792.481 18.7035V15.9871L791.554 15.9328C791.047 15.8966 790.575 15.7698 790.508 15.6611C790.44 15.5344 790.373 14.3573 790.373 13.0353V10.6448H785.986V12.9266ZM848.693 10.7535C848.625 10.8259 848.575 11.9668 848.575 13.2888C848.575 15.8603 848.558 15.8966 847.63 15.8966C847.208 15.8966 847.208 15.9147 847.259 17.291C847.309 18.6673 847.326 18.7035 847.765 18.7579C848.001 18.7941 848.288 18.9208 848.372 19.0295C848.473 19.1563 848.575 21.3475 848.625 24.1364C848.676 26.8166 848.76 29.2614 848.828 29.5511C849.03 30.3479 850.076 31.3621 851.071 31.7062C852.185 32.1046 855.019 32.1408 855.306 31.7605C855.441 31.5975 855.491 30.9456 855.458 30.0039L855.407 28.4827L854.817 28.374C854.176 28.2653 853.45 27.9032 853.265 27.5953C853.197 27.4866 853.13 25.5127 853.13 23.2128C853.13 18.4862 853.028 18.7941 854.496 18.7941C855.458 18.7941 855.542 18.613 855.458 16.965L855.407 15.9871L854.311 15.8966L853.214 15.806L853.13 13.2707L853.045 10.7354L850.92 10.681C849.756 10.6629 848.76 10.6991 848.693 10.7535ZM777.636 15.4619C776.809 15.6974 775.847 16.295 775.206 17.0012C774.43 17.8705 774.228 17.8162 774.144 16.7115L774.093 15.9871H769.875V31.9235L772.001 31.9597C774.093 32.014 774.144 31.9959 774.245 31.5975C774.295 31.3802 774.346 29.0803 774.346 26.4725C774.346 21.3113 774.363 21.1664 775.358 20.1523C775.797 19.6996 776.033 19.609 776.978 19.5547L778.074 19.4822L778.732 20.2247C779.508 21.094 779.424 20.261 779.491 27.7583C779.508 29.7503 779.525 31.5069 779.542 31.688C779.576 31.9416 779.846 31.9778 781.735 31.9416L783.878 31.9235V19.2106L783.388 18.1784C782.545 16.3855 781.246 15.5344 779.255 15.4257C778.547 15.4076 777.821 15.4076 777.636 15.4619ZM798.723 15.4619C796.901 15.9871 796.024 16.5123 794.894 17.7075C793.376 19.3555 792.684 21.2751 792.684 23.8647C792.701 28.4102 795.349 31.7786 799.263 32.177C802.604 32.5211 805.185 31.4707 806.838 29.0984C807.074 28.7543 807.58 27.6496 807.58 27.4504C807.58 27.378 806.602 27.3055 805.421 27.3055H803.261L802.755 27.8669C802.165 28.5189 801.338 28.9354 800.579 28.9354C799.82 28.9354 798.656 28.3559 798.116 27.7402C797.711 27.2512 797.121 25.8387 797.121 25.3497C797.121 25.1867 798.352 25.1324 802.317 25.1324C805.168 25.1324 807.58 25.06 807.698 24.9875C807.951 24.8064 807.715 21.927 807.344 20.8767C806.585 18.6854 805.151 16.8383 803.7 16.1863C803.278 16.0052 802.789 15.7698 802.62 15.6792C802.266 15.48 799.263 15.3171 798.723 15.4619ZM802.013 19.4279C802.671 19.9169 803.245 21.0759 803.16 21.7278C803.11 22.1443 803.076 22.1443 800.225 22.1987C796.935 22.253 796.918 22.2349 797.441 20.931C797.812 20.0255 798.555 19.2106 799.246 18.9752C800.039 18.7035 801.321 18.9208 802.013 19.4279ZM823.691 15.4619C821.734 16.0233 820.368 16.9469 819.305 18.3776C818.883 18.9571 818.546 19.5003 818.546 19.609C818.546 19.6996 818.428 20.0255 818.276 20.3334C818.124 20.6231 817.905 21.5286 817.787 22.3435C817.196 26.219 818.816 29.8409 821.852 31.4707L823.016 32.1046H825.463C827.993 32.1046 828.212 32.0502 829.764 31.1629C830.895 30.5109 832.75 27.9756 832.464 27.4685C832.396 27.378 831.435 27.3055 830.304 27.3055H828.229L827.808 27.8307C826.121 29.8771 822.966 28.8267 822.291 25.9836C822.19 25.6033 822.19 25.2773 822.274 25.2048C822.358 25.1505 824.771 25.1143 827.656 25.1324C831.772 25.1324 832.885 25.0962 832.902 24.9151C833.054 22.6514 832.042 19.3011 830.777 17.8524C830.068 17.0375 828.837 16.132 828.229 15.969C827.959 15.8966 827.656 15.7698 827.538 15.6792C827.301 15.48 824.214 15.3171 823.691 15.4619ZM826.323 18.9933C827.082 19.283 827.959 20.2972 828.094 21.0759C828.297 22.253 828.314 22.253 825.176 22.1987C822.358 22.1443 822.342 22.1443 822.291 21.7278C822.224 21.2208 822.814 19.9712 823.32 19.5004C824.045 18.8484 825.311 18.6311 826.323 18.9933ZM838.368 15.4619C834.91 16.3493 833.661 17.6713 833.645 20.4239C833.645 23.3939 835.028 24.6434 839.127 25.4222C841.945 25.9473 842.754 26.4182 842.721 27.5591C842.704 28.374 842.181 28.8992 841.135 29.1346C839.819 29.4425 838.79 29.0984 837.963 28.1024L837.305 27.3055H835.264C833.611 27.3055 833.223 27.3599 833.223 27.5591C833.223 28.0843 833.898 29.4606 834.454 30.1487C834.977 30.7463 835.382 31.0361 836.968 31.851C837.12 31.9416 837.946 32.0865 838.773 32.1951C840.308 32.3943 842.974 32.2132 843.649 31.851C843.8 31.7786 844.239 31.5432 844.61 31.3621C845.572 30.8731 846.483 29.7684 846.82 28.7181C847.191 27.5229 847.09 25.8568 846.567 24.6978C845.943 23.3396 844.29 22.3617 841.827 21.8908C838.655 21.2932 838.604 21.2751 838.098 20.7499C837.491 20.0799 837.491 19.8444 838.098 19.1201C838.588 18.5405 838.621 18.5224 839.971 18.5224C841.321 18.5224 841.354 18.5405 841.843 19.1201C842.113 19.446 842.333 19.8263 842.333 19.9712C842.333 20.1885 842.687 20.2428 844.441 20.2428C846.77 20.2428 846.702 20.2972 846.297 19.0114C845.555 16.7296 843.649 15.5706 840.477 15.4438C839.499 15.4076 838.554 15.4076 838.368 15.4619ZM815.931 15.8422C815.189 16.1139 814.16 17.0193 813.839 17.6713C813.519 18.3232 813.232 18.0516 813.147 16.965L813.063 15.9871H808.845L808.795 23.5931C808.778 27.7764 808.795 31.3802 808.845 31.6156C808.93 32.014 808.98 32.014 811.005 31.9778C812.169 31.9597 813.114 31.851 813.181 31.7424C813.249 31.6518 813.316 29.7322 813.316 27.4866C813.316 23.9372 813.35 23.3033 813.637 22.5065C814.227 20.8586 815.492 19.8806 817.078 19.8806C817.517 19.8806 817.702 19.7901 817.753 19.5547C817.871 19.0295 817.888 16.5847 817.787 16.0414C817.685 15.6068 817.601 15.5344 817.146 15.5525C816.842 15.5706 816.302 15.6974 815.931 15.8422ZM763.971 16.1139C763.92 16.2406 763.903 19.8082 763.92 24.0458L763.971 31.7424L765.978 31.8329C767.193 31.8872 768.07 31.851 768.205 31.7424C768.391 31.5975 768.441 30.0582 768.441 23.901C768.458 19.6996 768.408 16.1682 768.357 16.0777C768.188 15.806 764.055 15.8422 763.971 16.1139Z" fill="#170F49" fill-opacity="0.6"/>
<path d="M491.032 37.2236L482.194 37.05C479.333 36.9896 476.464 37.1104 473.659 36.484C469.391 35.5481 469.088 30.9591 468.772 27.1099C468.336 21.6983 468.505 16.1886 469.327 10.8223C469.792 7.81078 471.62 6.01446 474.446 5.81822C483.987 5.10875 493.592 5.19178 503.112 5.52387C504.117 5.55406 505.13 5.72011 506.121 5.9088C511.015 6.8296 511.134 12.0299 511.451 16.4074C511.767 20.8303 511.633 25.2758 511.029 29.6685C510.544 33.3064 509.615 36.3556 505.699 36.65C500.791 37.0349 495.996 37.3444 491.075 37.2463C491.075 37.2236 491.046 37.2236 491.032 37.2236ZM485.836 28.0156C489.535 25.7362 493.163 23.4946 496.84 21.2303C493.135 18.951 489.514 16.7094 485.836 14.4451V28.0156Z" fill="#170F49" fill-opacity="0.6"/>
<path d="M582.34 33.0877C582.171 33.8274 582.024 34.4086 581.876 35.0275H578.417V6.38422H582.453V16.9509C582.664 16.6641 582.769 16.5433 582.86 16.415C583.549 15.3961 584.442 14.7319 585.596 14.4753C587.431 14.0904 588.999 14.9583 589.554 16.8528C589.913 18.0302 590.145 19.2907 590.173 20.5209C590.229 23.6834 590.187 26.8383 590.081 30.0008C590.039 30.9669 589.765 31.9556 589.42 32.8613C588.288 35.8502 584.59 36.303 582.755 33.7142C582.642 33.5557 582.537 33.3821 582.34 33.0877ZM582.537 25.208V30.4461C582.537 31.299 582.959 31.8197 583.753 32.016C584.534 32.2122 585.167 31.8877 585.483 31.1103C585.617 30.7857 585.75 30.4461 585.757 30.1064C585.835 26.9062 585.905 23.706 585.926 20.4983C585.926 19.902 585.792 19.2831 585.624 18.702C585.307 17.6528 584.435 17.3434 583.578 17.9547C582.931 18.4227 582.537 19.0869 582.537 19.97V25.208ZM571.569 14.8829H575.794V35.0426H572.497C572.377 34.2803 572.258 33.4953 572.117 32.5745C571.892 32.9292 571.758 33.1557 571.618 33.3821C570.521 35.0803 568.967 35.6615 567.132 35.352C565.564 35.0803 564.622 33.7821 564.411 31.6537C564.348 31.0197 564.32 30.3781 564.32 29.7441C564.306 25.0269 564.32 20.2945 564.32 15.5772V14.8678H568.594V15.6904C568.594 20.2492 568.58 24.8004 568.609 29.3592C568.609 30.0083 568.672 30.68 568.777 31.3291C568.897 31.9933 569.347 32.2349 569.951 32.1896C570.929 32.1066 571.604 31.3291 571.604 30.2876V15.7735C571.569 15.4791 571.569 15.2074 571.569 14.8829ZM542.474 14.8678H546.721V15.7206C546.721 20.2568 546.707 24.7853 546.735 29.3064C546.735 29.9555 546.791 30.6272 546.918 31.2612C547.08 32.0084 547.487 32.25 548.183 32.1518C549.147 32.0084 549.73 31.2914 549.737 30.2423V15.8037V14.8979H553.963V35.0426H550.679C550.56 34.2954 550.44 33.5255 550.286 32.5519C550.075 32.8915 549.955 33.0877 549.836 33.2915C548.739 35.0199 547.199 35.6539 545.322 35.3445C543.817 35.103 542.896 33.9104 542.615 31.9556C542.537 31.3442 542.481 30.7404 542.481 30.1291C542.467 25.2307 542.467 20.3096 542.467 15.4112L542.474 14.8678ZM540.295 25.6307C540.281 26.31 540.238 26.9893 540.203 27.6685C540.041 29.7064 539.964 32.5971 538.431 34.084C537.454 35.0199 536.217 35.3596 534.937 35.4049C534.367 35.42 533.791 35.42 533.221 35.3369C530.528 34.8992 529.277 33.6236 528.827 30.4461C528.314 26.7779 528.271 23.0494 528.883 19.3812C529.516 15.5848 531.696 14.2413 535.085 14.4904C538.249 14.7319 539.662 16.9585 540.034 20.1285C540.238 21.9474 540.337 23.7891 540.295 25.6307ZM535.992 24.9363C535.992 23.6457 536.02 22.3475 535.978 21.0568C535.949 20.3096 535.858 19.5548 535.71 18.8152C535.542 17.9623 535.035 17.5547 534.403 17.5698C533.784 17.5849 533.348 17.9925 533.123 18.785C533.046 19.0793 532.961 19.3812 532.961 19.6756C532.961 21.6984 532.947 23.7287 532.933 25.7514C532.919 27.6383 532.694 29.6158 533.249 31.4197C533.418 31.9707 533.854 32.2726 534.424 32.2726C534.979 32.2726 535.345 31.9782 535.549 31.4499C535.71 31.0423 535.851 30.597 535.851 30.1593C535.9 28.4233 535.992 26.6798 535.992 24.9363ZM522.626 21.1398C522.998 19.185 523.35 17.2755 523.736 15.3584C524.222 12.9205 524.763 10.4826 525.241 8.03715C525.361 7.44088 525.586 7.29748 526.113 7.31258C527.245 7.35786 528.398 7.32767 529.607 7.32767C529.214 8.88248 528.827 10.3618 528.447 11.8185C527.245 16.3924 526.043 20.9813 524.854 25.5703C524.763 25.925 524.721 26.31 524.721 26.6873C524.707 29.1932 524.721 31.6914 524.721 34.1972V35.0124H520.594C520.58 34.786 520.551 34.5595 520.551 34.3331C520.551 32.9141 520.446 31.4876 520.565 30.0838C520.868 26.71 519.869 23.6079 519.061 20.4681C517.992 16.3169 516.909 12.1506 515.841 7.99941C515.784 7.80317 515.763 7.59184 515.707 7.35031H519.919C520.805 11.9317 521.697 16.5131 522.626 21.1398ZM603.377 26.4005H596.262C596.339 27.9327 596.367 29.3894 596.515 30.831C596.62 31.8348 597.133 32.2651 597.942 32.2726C598.786 32.2877 599.278 31.8348 599.475 30.8385C599.538 30.514 599.58 30.1895 599.608 29.8574C599.637 29.563 599.651 29.246 599.672 28.8233C600.874 28.8913 602.048 28.9667 603.208 29.0196C603.883 31.1706 602.667 33.9331 600.621 34.786C599.011 35.4652 597.358 35.4652 595.713 34.9445C594.497 34.5595 593.59 33.7293 593.182 32.4537C592.802 31.2612 592.444 30.0159 592.366 28.7705C592.155 25.6986 592.078 22.5965 592.514 19.5171C592.591 19.0039 592.725 18.5133 592.873 18.0151C593.463 15.9622 594.75 14.7017 596.74 14.4904C597.822 14.3772 598.94 14.4224 600.009 14.6187C601.739 14.9432 602.66 16.2792 603.061 18.0302C603.243 18.8529 603.377 19.6982 603.405 20.536C603.412 22.4607 603.377 24.3702 603.377 26.4005ZM599.334 23.7513C599.334 22.2342 599.348 20.8077 599.32 19.3737C599.32 19.034 599.201 18.6793 599.081 18.3548C598.842 17.7208 598.343 17.5472 597.745 17.5472C597.148 17.5472 596.768 17.8717 596.62 18.4529C596.17 20.1964 596.318 21.9776 596.332 23.7664C597.408 23.7513 598.385 23.7513 599.334 23.7513Z" fill="#170F49" fill-opacity="0.6"/>
<path d="M557.225 11.0263H553.042V7.38837H565.529V11.0037H561.373V35.0127H557.232L557.225 11.0263Z" fill="#170F49" fill-opacity="0.6"/>
<path d="M1067.36 8.29075H1062.27V0.719238H1051.09L1045.95 8.29075H1036.81L1033.76 11.5357V8.29075H1026.63V0.719238H1004.22V8.29075H972.705L967.562 0.719238H956.36V26.6787L970.617 41.8217H984.875V37.4951L988.948 41.8217H1016.44V37.4951L1020.52 41.8217H1033.76V37.4951L1037.83 41.8217H1063.29L1072.46 32.0869V13.699L1067.36 8.29075ZM973.673 19.1072H966.544V21.2705H973.673V29.9236H962.47L958.397 25.597V2.88253H966.544V10.454H973.673V19.1072ZM1004.22 29.9236H979.783L975.709 25.597V10.454H983.856V21.2705H985.893V10.454H994.04V21.2705H996.077V10.454H1004.22V29.9236ZM1014.41 29.9236H1006.26V10.454H1014.41V29.9236ZM1014.41 8.29075H1006.26V2.88253H1014.41V8.29075ZM1031.72 19.1072H1024.59V21.2705H1031.72V29.9236H1020.52L1016.44 25.597V2.88253H1024.59V10.454H1031.72V19.1072ZM1050.05 19.1072H1041.9V21.2705H1050.05V29.9236H1037.83L1033.76 25.597V14.7806L1037.83 10.454H1050.05V19.1072ZM1070.42 29.9236H1062.27V19.1072H1060.23V29.9236H1052.09V2.88253H1060.23V10.454H1066.35L1070.42 14.7806V29.9236Z" fill="#170F49" fill-opacity="0.6"/>
</svg>
